<?xml version="1.0" encoding="UTF-8"?>
<svg version="1.1" xmlns="http://www.w3.org/2000/svg" width="201" height="206">
<path d="M0 0 C4.70864382 3.93387072 9.17783311 8.02128445 13.5 12.375 C14.02980469 12.9009375 14.55960938 13.426875 15.10546875 13.96875 C17.90768227 16.77774854 20.57989038 19.64635314 23.15625 22.6640625 C28.12672722 28.40653244 33.59880085 33.6679204 39 39 C51.46279815 51.30331079 51.46279815 51.30331079 56.59765625 57.37890625 C57.99806325 58.99776114 59.46883518 60.50518331 61 62 C59.51891127 65.4534417 57.57178301 67.64921326 54.89453125 70.265625 C53.66573242 71.47798828 53.66573242 71.47798828 52.41210938 72.71484375 C51.55423828 73.55144531 50.69636719 74.38804688 49.8125 75.25 C42.97459643 81.90875052 42.97459643 81.90875052 36.54296875 88.953125 C31.30980237 95.05912214 25.46064434 100.58123182 19.73828125 106.22265625 C15.13750601 110.78359794 10.72581851 115.39460519 6.52148438 120.32226562 C4.54997768 122.49623771 2.36977994 124.27652368 0 126 C-2.69181275 123.337658 -5.37762147 120.66933333 -8.0625 118 C-9.19075195 116.88431641 -9.19075195 116.88431641 -10.34179688 115.74609375 C-15.10818371 111.00034062 -19.64681013 106.12776949 -24 101 C-22.54811406 97.64956603 -20.7180341 95.49513804 -18.11328125 92.953125 C-17.33919922 92.19 -16.56511719 91.426875 -15.76757812 90.640625 C-14.95740234 89.85171875 -14.14722656 89.0628125 -13.3125 88.25 C-8.16966396 83.2203315 -3.16644021 78.17109288 1.51928711 72.70996094 C3.24369987 70.71856984 5.05599457 68.84310736 6.9375 67 C7.52402344 66.4225 8.11054688 65.845 8.71484375 65.25 C9.13894531 64.8375 9.56304687 64.425 10 64 C8.53053311 58.52860858 4.73150395 55.43606065 0.76953125 51.65234375 C-0.68709295 50.22876523 -2.14346572 48.80492942 -3.59960938 47.38085938 C-5.89993625 45.14906651 -8.20413513 42.92148997 -10.51342773 40.69897461 C-12.74229471 38.54828025 -14.95575985 36.38264932 -17.16796875 34.21484375 C-17.86681686 33.55121323 -18.56566498 32.8875827 -19.28569031 32.20384216 C-19.91997452 31.57961868 -20.55425873 30.9553952 -21.20776367 30.31225586 C-21.77242844 29.76774277 -22.3370932 29.22322968 -22.91886902 28.66221619 C-24 27 -24 27 -23.81356812 24.95332336 C-22.53833909 21.89158263 -20.21352388 19.84771469 -17.87109375 17.578125 C-17.36199966 17.07327576 -16.85290558 16.56842651 -16.3283844 16.04827881 C-14.7050088 14.44166021 -13.071503 12.84580178 -11.4375 11.25 C-10.3332995 10.16085016 -9.22977555 9.07101395 -8.12695312 7.98046875 C-5.4257471 5.3122924 -2.71540937 2.65371709 0 0 Z " fill="#1D06AD" transform="translate(136,40)"/>
<path d="M0 0 C3.02607472 1.34204833 4.98592757 2.78612131 7.20703125 5.23046875 C7.79419922 5.86919922 8.38136719 6.50792969 8.98632812 7.16601562 C9.58896484 7.83310547 10.19160156 8.50019531 10.8125 9.1875 C12.00521437 10.49467333 13.19922314 11.80066677 14.39453125 13.10546875 C14.98057129 13.75177246 15.56661133 14.39807617 16.17041016 15.06396484 C18.59497986 17.62959571 21.18703572 20.00160303 23.8190918 22.3527832 C25 24 25 24 24.93725586 25.93725586 C23.71551974 28.6260937 22.11205025 30.20847467 19.9921875 32.265625 C18.75855469 33.47798828 18.75855469 33.47798828 17.5 34.71484375 C16.63375 35.55144531 15.7675 36.38804688 14.875 37.25 C9.53570159 42.45050931 4.3102891 47.64341552 -0.5390625 53.30761719 C-2.2548171 55.29518585 -4.06214367 57.16291625 -5.9375 59 C-6.52402344 59.5775 -7.11054687 60.155 -7.71484375 60.75 C-8.13894531 61.1625 -8.56304687 61.575 -9 62 C-7.44234073 65.75310882 -5.1220056 68.09417913 -2.23828125 70.921875 C-1.76939987 71.38555481 -1.30051849 71.84923462 -0.81742859 72.32696533 C0.67951598 73.80617025 2.18295749 75.27852701 3.6875 76.75 C15.42740603 88.2694113 15.42740603 88.2694113 20.57348633 94.35253906 C21.97088209 96.05416539 21.97088209 96.05416539 23.7487793 97.46777344 C25 99 25 99 24.97851562 100.88037109 C23.61249034 103.8394109 21.67574086 105.64136687 19.34375 107.9140625 C18.40402344 108.83960938 17.46429688 109.76515625 16.49609375 110.71875 C15.49779359 111.68790988 14.49909092 112.65665532 13.5 113.625 C11.54855093 115.53030208 9.60204371 117.44046745 7.65625 119.3515625 C6.78806641 120.19541504 5.91988281 121.03926758 5.02539062 121.90869141 C2.95772663 123.83371462 2.95772663 123.83371462 2 126 C1.34 126 0.68 126 0 126 C-1.375 124.6015625 -1.375 124.6015625 -3 122.625 C-7.3896885 117.46279904 -12.17533167 112.75265835 -17 108 C-26.62877577 98.5149373 -26.62877577 98.5149373 -30.4921875 94.0078125 C-34.76311398 89.02631595 -39.45356219 84.47743578 -44.125 79.875 C-56.35833606 67.82077574 -56.35833606 67.82077574 -59 64 C-58.7250204 60.15523123 -56.67199448 58.3349046 -53.9921875 55.734375 C-53.16976562 54.92613281 -52.34734375 54.11789063 -51.5 53.28515625 C-50.200625 52.03025391 -50.200625 52.03025391 -48.875 50.75 C-42.04122767 44.14760141 -42.04122767 44.14760141 -35.6328125 37.140625 C-30.27119567 30.87835679 -24.26017066 25.20565294 -18.39746094 19.41796875 C-12.37140308 13.46211022 -6.47913517 7.4721176 -1 1 C-0.67 0.67 -0.34 0.34 0 0 Z " fill="#1E08AD" transform="translate(63,40)"/>
<path d="M0 0 C4.69866593 3.87189567 8.98164031 7.92209189 13.0625 12.4375 C13.5790918 13.00299561 14.09568359 13.56849121 14.62792969 14.15112305 C18.16376117 18.03551835 21.62787702 21.97218644 25 26 C19.95102033 31.94736382 14.6081983 37.51607898 9.0625 43 C8.28326172 43.77472656 7.50402344 44.54945313 6.70117188 45.34765625 C4.8030758 47.23410757 2.90266851 49.11816245 1 51 C-6.98860737 47.25760829 -12.89622215 39.320335 -18.5234375 32.6796875 C-20.09305254 30.82832809 -20.09305254 30.82832809 -22.5 28.75 C-24 27 -24 27 -23.91430664 25.22949219 C-22.60027487 22.02528975 -20.31542996 19.94645189 -17.87109375 17.578125 C-17.36199966 17.07327576 -16.85290558 16.56842651 -16.3283844 16.04827881 C-14.7050088 14.44166021 -13.071503 12.84580178 -11.4375 11.25 C-10.3332995 10.16085016 -9.22977555 9.07101395 -8.12695312 7.98046875 C-5.4257471 5.3122924 -2.71540937 2.65371709 0 0 Z " fill="#6424E9" transform="translate(100,152)"/>
<path d="M0 0 C2.08475407 1.17658867 3.15238874 2.26816805 4.6328125 4.15234375 C8.4213025 8.70854538 12.55734677 12.85583998 16.7578125 17.02734375 C17.44528564 17.71070801 18.13275879 18.39407227 18.84106445 19.09814453 C20.49884154 20.74322233 22.15848999 22.38635411 23.8203125 24.02734375 C22.31741221 27.56166426 20.27267817 29.79469706 17.5390625 32.46875 C16.69730469 33.29955078 15.85554688 34.13035156 14.98828125 34.98632812 C14.10785156 35.84548828 13.22742188 36.70464844 12.3203125 37.58984375 C10.57851002 39.29721821 8.83882766 41.00675899 7.1015625 42.71875 C6.32876953 43.47357666 5.55597656 44.22840332 4.75976562 45.00610352 C2.66323116 47.07248331 2.66323116 47.07248331 0.8203125 50.02734375 C-2.97873316 49.46175549 -4.7050232 47.86528914 -7.3671875 45.16796875 C-8.14835937 44.38164063 -8.92953125 43.5953125 -9.734375 42.78515625 C-10.54132813 41.95757812 -11.34828125 41.13 -12.1796875 40.27734375 C-12.98664063 39.46523438 -13.79359375 38.653125 -14.625 37.81640625 C-18.3672134 34.02479069 -21.8972533 30.22996597 -25.1796875 26.02734375 C-22.7223962 20.45410575 -18.30395346 16.41271432 -14.1796875 12.02734375 C-13.67453613 11.48287598 -13.16938477 10.9384082 -12.64892578 10.37744141 C-11.06961502 8.68369486 -9.47155391 7.00984557 -7.8671875 5.33984375 C-7.36396973 4.7984375 -6.86075195 4.25703125 -6.34228516 3.69921875 C-2.75779614 0.03459601 -2.75779614 0.03459601 0 0 Z " fill="#621FE9" transform="translate(101.1796875,2.97265625)"/>
<path d="M0 0 C2.53679526 1.27150138 3.90924768 2.97937207 5.73339844 5.15014648 C9.6113329 9.62468624 13.65466475 13.85526298 17.85839844 18.02514648 C18.44290771 18.60554688 19.02741699 19.18594727 19.62963867 19.78393555 C21.01636175 21.15805769 22.40582712 22.52941155 23.79589844 23.90014648 C21.62513285 27.86590851 19.12031636 30.80996393 15.90917969 33.98217773 C15.44730759 34.44121994 14.98543549 34.90026215 14.50956726 35.37321472 C13.04717705 36.82449562 11.57795717 38.26862853 10.10839844 39.71264648 C9.1098902 40.70111295 8.11183855 41.69004085 7.11425781 42.67944336 C4.67925536 45.09091922 2.23970254 47.49759606 -0.20410156 49.90014648 C-8.19270894 46.15775477 -14.10032371 38.22048148 -19.72753906 31.57983398 C-21.2971541 29.72847458 -21.2971541 29.72847458 -23.70410156 27.65014648 C-25.20410156 25.90014648 -25.20410156 25.90014648 -25.09594727 24.11816406 C-23.15379561 19.28803875 -18.59918386 15.77807273 -14.94897461 12.14404297 C-13.39325208 10.58929597 -11.86009289 9.01442696 -10.32714844 7.43725586 C-9.34342525 6.44832795 -8.35844066 5.46065285 -7.37207031 4.47436523 C-6.47770264 3.57290771 -5.58333496 2.6714502 -4.66186523 1.74267578 C-2.20410156 -0.09985352 -2.20410156 -0.09985352 0 0 Z " fill="#601DEA" transform="translate(101.2041015625,78.099853515625)"/>
<path d="M0 0 C7.875 6.75 7.875 6.75 10 10 C7.23723823 9.47731534 4.6739124 8.89130413 2 8 C1.67 8.66 1.34 9.32 1 10 C-0.32 10 -1.64 10 -3 10 C-3 10.99 -3 11.98 -3 13 C-3.99 13 -4.98 13 -6 13 C-6 13.66 -6 14.32 -6 15 C-6.99 15 -7.98 15 -9 15 C-9 14.34 -9 13.68 -9 13 C-9.66 13 -10.32 13 -11 13 C-11.20625 13.928125 -11.4125 14.85625 -11.625 15.8125 C-13 19 -13 19 -16 20.9375 C-17.485 21.4634375 -17.485 21.4634375 -19 22 C-19.66 21.67 -20.32 21.34 -21 21 C-14.07 14.07 -7.14 7.14 0 0 Z " fill="#3321AD" transform="translate(136,40)"/>
<path d="M0 0 C3.21524305 1.40844718 5.32183868 3.10344786 7.75 5.625 C8.67039063 6.57246094 8.67039063 6.57246094 9.609375 7.5390625 C10.29773438 8.26222656 10.29773438 8.26222656 11 9 C9.6875 10.5 9.6875 10.5 8 12 C7.01 12 6.02 12 5 12 C5 11.01 5 10.02 5 9 C4.01 10.485 4.01 10.485 3 12 C2.34 12 1.68 12 1 12 C1.2475 10.824375 1.2475 10.824375 1.5 9.625 C2.0623707 7.11791961 2.0623707 7.11791961 2 5 C1.34 4.67 0.68 4.34 0 4 C0 2.68 0 1.36 0 0 Z " fill="#2B16AD" transform="translate(157,63)"/>
<path d="M0 0 C1.13199353 0.9080162 2.25532363 1.82683826 3.375 2.75 C4.00148438 3.26046875 4.62796875 3.7709375 5.2734375 4.296875 C7.08312318 6.08199481 8.00117455 7.67949644 9 10 C7.52386015 11.50297876 6.04400843 13.00231285 4.5625 14.5 C3.73878906 15.3353125 2.91507812 16.170625 2.06640625 17.03125 C0 19 0 19 -1 19 C-1.36625971 14.48279689 -1.36625971 14.48279689 0.375 12.1875 C2 11 2 11 4 11 C3.12681175 8.12360132 3.12681175 8.12360132 2 6.0625 C1.01896748 4.03912043 0.50986277 2.18057382 0 0 Z " fill="#8A64E4" transform="translate(116,19)"/>
<path d="M0 0 C0.66 1.65 1.32 3.3 2 5 C1.21625 5.268125 0.4325 5.53625 -0.375 5.8125 C-3.28114923 6.84814432 -3.28114923 6.84814432 -5 10 C-5.99 10 -6.98 10 -8 10 C-7.67895459 6.46850054 -7.34914783 4.44225392 -5.125 1.625 C-3 0 -3 0 0 0 Z " fill="#1601AB" transform="translate(179,113)"/>
<path d="M0 0 C1.65 1.65 3.3 3.3 5 5 C3.85760183 6.33627775 2.71098945 7.66895388 1.5625 9 C0.60537109 10.11375 0.60537109 10.11375 -0.37109375 11.25 C-0.90863281 11.8275 -1.44617188 12.405 -2 13 C-2.33 13 -2.66 13 -3 13 C-3.20493693 9.31113525 -2.76337611 7.21556819 -1 4 C-0.63215869 2.6757713 -0.28797019 1.34386088 0 0 Z " fill="#8A65E6" transform="translate(120,173)"/>
<path d="M0 0 C0 0.66 0 1.32 0 2 C0.66 2.33 1.32 2.66 2 3 C-0.31 5.31 -2.62 7.62 -5 10 C-5.66 9.01 -6.32 8.02 -7 7 C-6.34 6.34 -5.68 5.68 -5 5 C-5 3.68 -5 2.36 -5 1 C-2 0 -2 0 0 0 Z M-8 4 C-6 5 -6 5 -6 5 Z " fill="#311EAD" transform="translate(185,111)"/>
<path d="M0 0 C0 4.16330019 -1.53938112 6.4994735 -4.4296875 9.46875 C-6 10.875 -6 10.875 -9 13 C-9.99 12.67 -10.98 12.34 -12 12 C-8.04 8.04 -4.08 4.08 0 0 Z " fill="#8C64E2" transform="translate(97,5)"/>
<path d="M0 0 C0.99 0.33 1.98 0.66 3 1 C-0.63 4.63 -4.26 8.26 -8 12 C-8.33 10.68 -8.66 9.36 -9 8 C-8.38125 7.7525 -7.7625 7.505 -7.125 7.25 C-4.60421533 5.76718549 -4.2147002 4.59136042 -3 2 C-2.01 1.34 -1.02 0.68 0 0 Z " fill="#4334AD" transform="translate(160,138)"/>
<path d="M0 0 C0.99 0 1.98 0 3 0 C2.52797514 4.24822374 0.03344482 6.19989709 -3 9 C-4.32 8.34 -5.64 7.68 -7 7 C-7 5.68 -7 4.36 -7 3 C-6.01 2.67 -5.02 2.34 -4 2 C-4 2.99 -4 3.98 -4 5 C-3.34 5 -2.68 5 -2 5 C-2 4.34 -2 3.68 -2 3 C-1.01 3 -0.02 3 1 3 C0.67 2.01 0.34 1.02 0 0 Z " fill="#7648DF" transform="translate(104,119)"/>
<path d="M0 0 C0.66 0 1.32 0 2 0 C1.835 0.598125 1.67 1.19625 1.5 1.8125 C0.8885876 4.11344336 0.8885876 4.11344336 1 7 C0.6937566 8.33981486 0.36548445 9.67511887 0 11 C-2.475 10.01 -2.475 10.01 -5 9 C-5 4.68381834 -2.86729652 3.07210341 0 0 Z " fill="#5E16E9" transform="translate(88,175)"/>
<path d="M0 0 C1.50934217 3.01868434 1.17510672 5.67297229 1 9 C0.01 10.485 0.01 10.485 -1 12 C-3.0625 10.25 -3.0625 10.25 -5 8 C-5 4.96177684 -3.99700998 3.99673816 -1.9375 1.75 C-1.298125 1.1725 -0.65875 0.595 0 0 Z " fill="#713AE1" transform="translate(81,171)"/>
<path d="M0 0 C-0.57584432 2.38564077 -1.22227595 4.66682784 -2 7 C-3.65 7 -5.3 7 -7 7 C-6.625 4.0625 -6.625 4.0625 -6 1 C-4 0 -4 0 0 0 Z " fill="#5B1CE2" transform="translate(88,170)"/>
<path d="M0 0 C0.78375 0.04125 1.5675 0.0825 2.375 0.125 C2.375 1.445 2.375 2.765 2.375 4.125 C1.715 4.125 1.055 4.125 0.375 4.125 C0.375 4.785 0.375 5.445 0.375 6.125 C-1.605 6.125 -3.585 6.125 -5.625 6.125 C-4.86443086 2.32215429 -4.27658992 0.20364714 0 0 Z " fill="#2F1DAC" transform="translate(38.625,67.875)"/>
<path d="M0 0 C0.99 1.32 1.98 2.64 3 4 C1.35 4.66 -0.3 5.32 -2 6 C-1.67 6.66 -1.34 7.32 -1 8 C-2.32 8 -3.64 8 -5 8 C-5.33 8.99 -5.66 9.98 -6 11 C-5.34 11.33 -4.68 11.66 -4 12 C-4.99 12 -5.98 12 -7 12 C-7.74609375 10.265625 -7.74609375 10.265625 -8 8 C-6.34765625 5.859375 -6.34765625 5.859375 -4.0625 3.75 C-3.31097656 3.04359375 -2.55945313 2.3371875 -1.78515625 1.609375 C-1.19605469 1.07828125 -0.60695313 0.5471875 0 0 Z " fill="#9371E7" transform="translate(84,93)"/>
<path d="M0 0 C0.99 0.99 1.98 1.98 3 3 C0.69 5.31 -1.62 7.62 -4 10 C-4.99 9.01 -5.98 8.02 -7 7 C-6.67 6.34 -6.34 5.68 -6 5 C-5.360625 4.87625 -4.72125 4.7525 -4.0625 4.625 C-1.80148727 4.19060573 -1.80148727 4.19060573 -0.75 1.9375 C-0.5025 1.298125 -0.255 0.65875 0 0 Z " fill="#4F41B8" transform="translate(171,125)"/>
<path d="M0 0 C1.65 0 3.3 0 5 0 C5.33 1.32 5.66 2.64 6 4 C3.64561267 5.42944945 2.51967567 6.08661261 -0.25 5.625 C-0.8275 5.41875 -1.405 5.2125 -2 5 C-1.34 3.35 -0.68 1.7 0 0 Z " fill="#1803A7" transform="translate(27,78)"/>
<path d="M0 0 C0.33 0.66 0.66 1.32 1 2 C0.67 2.99 0.34 3.98 0 5 C0.928125 5.2165625 0.928125 5.2165625 1.875 5.4375 C4 6 4 6 6 7 C6.625 10.0625 6.625 10.0625 7 13 C5.87411986 12.04270084 4.7493285 11.08412105 3.625 10.125 C2.99851562 9.59132813 2.37203125 9.05765625 1.7265625 8.5078125 C0.44163349 7.38567993 -0.79371975 6.20628025 -2 5 C-1.46428571 1.46428571 -1.46428571 1.46428571 0 0 Z " fill="#7B70C7" transform="translate(114,62)"/>
<path d="M0 0 C0.33 0.66 0.66 1.32 1 2 C-0.42514969 5.94011972 -1.48607389 7.67486308 -5.0625 9.9375 C-6.031875 10.288125 -7.00125 10.63875 -8 11 C-8.66 10.67 -9.32 10.34 -10 10 C-6.7 6.7 -3.4 3.4 0 0 Z " fill="#6357BA" transform="translate(125,51)"/>
<path d="M0 0 C0 1.65 0 3.3 0 5 C-2.31 5 -4.62 5 -7 5 C-7 4.34 -7 3.68 -7 3 C-7.66 2.67 -8.32 2.34 -9 2 C-5.86501708 0.14223235 -3.62528568 -0.20140476 0 0 Z " fill="#5D17E9" transform="translate(121,26)"/>
<path d="M0 0 C0.33 0.66 0.66 1.32 1 2 C-0.68474722 5.36949443 -1.8191658 6.87944386 -5 9 C-5 9.66 -5 10.32 -5 11 C-4.34 11.66 -3.68 12.32 -3 13 C-3.99 13 -4.98 13 -6 13 C-6.66 11.68 -7.32 10.36 -8 9 C-5.36 6.03 -2.72 3.06 0 0 Z " fill="#916DE4" transform="translate(84,18)"/>
<path d="M0 0 C0.33 1.32 0.66 2.64 1 4 C0.01 4.66 -0.98 5.32 -2 6 C-3.20450304 8.55183404 -3.20450304 8.55183404 -4 11 C-4.99 10.34 -5.98 9.68 -7 9 C-5.44499019 5.18315774 -2.96404505 2.80804268 0 0 Z " fill="#594BB7" transform="translate(119,132)"/>
<path d="M0 0 C-0.020625 1.11375 -0.04125 2.2275 -0.0625 3.375 C-0.26380718 6.83215921 -0.26380718 6.83215921 1 9 C-0.875 8.8125 -0.875 8.8125 -3 8 C-4.125 5.5625 -4.125 5.5625 -5 3 C-5.66 2.34 -6.32 1.68 -7 1 C-4.50935112 0.31292445 -2.62113708 0 0 0 Z " fill="#5918E3" transform="translate(97,39)"/>
<path d="M0 0 C1.32 0 2.64 0 4 0 C4 0.99 4 1.98 4 3 C4.61875 3.061875 5.2375 3.12375 5.875 3.1875 C8 4 8 4 9.3125 6.4375 C10 9 10 9 9 11 C7.49703315 9.35687553 5.99769719 7.71042916 4.5 6.0625 C3.6646875 5.14597656 2.829375 4.22945313 1.96875 3.28515625 C0 1 0 1 0 0 Z " fill="#8157E1" transform="translate(79,106)"/>
<path d="M0 0 C1.32 1.32 2.64 2.64 4 4 C2.02 6.31 0.04 8.62 -2 11 C-2.33 9.68 -2.66 8.36 -3 7 C-2.01 7 -1.02 7 0 7 C0 4.69 0 2.38 0 0 Z " fill="#997CE8" transform="translate(121,99)"/>
<path d="M0 0 C0.185625 0.8971875 0.185625 0.8971875 0.375 1.8125 C0.95475985 4.26231348 0.95475985 4.26231348 3 7 C2.01 8.485 2.01 8.485 1 10 C-1.0625 8.25 -1.0625 8.25 -3 6 C-2.82246387 2.98188578 -2.16264785 2.16264785 0 0 Z " fill="#4333B0" transform="translate(7,98)"/>
<path d="M0 0 C1.8125 0.0625 1.8125 0.0625 4 1 C6.25 4.0625 6.25 4.0625 8 7 C7.01 7 6.02 7 5 7 C5 6.34 5 5.68 5 5 C3.35 5.33 1.7 5.66 0 6 C0 3 0 3 1 2 C0.34 1.67 -0.32 1.34 -1 1 C-0.67 0.67 -0.34 0.34 0 0 Z " fill="#8150E5" transform="translate(99,3)"/>
<path d="M0 0 C1.32 0.66 2.64 1.32 4 2 C2.25 6.875 2.25 6.875 0 8 C-0.66 6.02 -1.32 4.04 -2 2 C-1.34 1.34 -0.68 0.68 0 0 Z " fill="#311FAA" transform="translate(65,82)"/>
<path d="M0 0 C-1.49097658 3.7952131 -3.75700849 5.61042731 -7 8 C-7.25 5.6875 -7.25 5.6875 -7 3 C-4.51960083 0.51960083 -3.55547616 0 0 0 Z " fill="#3827A5" transform="translate(75,153)"/>
<path d="M0 0 C1.1446875 0.2784375 1.1446875 0.2784375 2.3125 0.5625 C5.08967375 1.22819173 5.08967375 1.22819173 8 0 C7.67 1.65 7.34 3.3 7 5 C6.01 5 5.02 5 4 5 C1.8125 2.5 1.8125 2.5 0 0 Z " fill="#5547B4" transform="translate(131,160)"/>
<path d="M0 0 C1.65 0 3.3 0 5 0 C5 1.32 5 2.64 5 4 C2.50907189 5.24546405 1.58919267 4.7767578 -1 4 C-0.67 2.68 -0.34 1.36 0 0 Z " fill="#321EB0" transform="translate(160,133)"/>
<path d="M0 0 C0.33 0.66 0.66 1.32 1 2 C0.0625 4.125 0.0625 4.125 -1 6 C-1.99 6 -2.98 6 -4 6 C-4 6.99 -4 7.98 -4 9 C-5.32 8.67 -6.64 8.34 -8 8 C-5.36 5.36 -2.72 2.72 0 0 Z " fill="#6458BA" transform="translate(146,104)"/>
<path d="M0 0 C1.12894876 0.93274109 2.25300876 1.87140122 3.375 2.8125 C4.00148438 3.33457031 4.62796875 3.85664062 5.2734375 4.39453125 C7 6 7 6 9 9 C8.01 9.495 8.01 9.495 7 10 C3.60582235 6.87378374 1.3937282 4.43458973 0 0 Z " fill="#784CE1" transform="translate(105,83)"/>
<path d="M0 0 C2.5 1.6875 2.5 1.6875 5 4 C5.3125 6.75 5.3125 6.75 5 9 C3.68 8.67 2.36 8.34 1 8 C0.67 5.36 0.34 2.72 0 0 Z " fill="#7541E0" transform="translate(116,94)"/>
<path d="M0 0 C0.99 0.33 1.98 0.66 3 1 C2.67 1.99 2.34 2.98 2 4 C-0.06640625 4.94921875 -0.06640625 4.94921875 -2.5625 5.6875 C-3.38878906 5.93886719 -4.21507812 6.19023438 -5.06640625 6.44921875 C-5.70449219 6.63097656 -6.34257813 6.81273438 -7 7 C-7 6.34 -7 5.68 -7 5 C-6.030625 4.54625 -5.06125 4.0925 -4.0625 3.625 C-0.92920418 2.34213779 -0.92920418 2.34213779 0 0 Z " fill="#1601AD" transform="translate(14,95)"/>
<path d="M0 0 C0.99 0.33 1.98 0.66 3 1 C1.60667426 4.36720387 0.0210714 5.9859524 -3 8 C-3.36923077 3.44615385 -3.36923077 3.44615385 -1.5 1.1875 C-1.005 0.795625 -0.51 0.40375 0 0 Z " fill="#8155DF" transform="translate(118,30)"/>
<path d="M0 0 C1.10844919 3.32534757 0.84454356 5.62182575 0 9 C-1.32 8.34 -2.64 7.68 -4 7 C-3.34 6.34 -2.68 5.68 -2 5 C-2.33 4.01 -2.66 3.02 -3 2 C-2.01 1.34 -1.02 0.68 0 0 Z " fill="#5B18E7" transform="translate(119,173)"/>
<path d="M0 0 C0.33 0.99 0.66 1.98 1 3 C-1.31 4.98 -3.62 6.96 -6 9 C-6.33 8.01 -6.66 7.02 -7 6 C-4.69 4.02 -2.38 2.04 0 0 Z " fill="#685CBE" transform="translate(87,139)"/>
<path d="M0 0 C1.875 0.25 1.875 0.25 4 1 C5.25 3.0625 5.25 3.0625 6 5 C5.34 5 4.68 5 4 5 C4 4.34 4 3.68 4 3 C1.36 3.66 -1.28 4.32 -4 5 C-2.68 3.35 -1.36 1.7 0 0 Z " fill="#9779E1" transform="translate(99,78)"/>
<path d="M0 0 C0.33 0.66 0.66 1.32 1 2 C1.99 2.33 2.98 2.66 4 3 C2.35 4.65 0.7 6.3 -1 8 C-1.04241723 5.66705225 -1.04092937 3.33297433 -1 1 C-0.67 0.67 -0.34 0.34 0 0 Z " fill="#7F4EEB" transform="translate(110,111)"/>
<path d="M0 0 C0.33 0.99 0.66 1.98 1 3 C-2.0247093 7.70510336 -2.0247093 7.70510336 -5.14453125 8.6484375 C-5.75683594 8.76445313 -6.36914062 8.88046875 -7 9 C-6.02180976 7.68677212 -5.0424189 6.37443848 -4.0625 5.0625 C-3.51722656 4.33160156 -2.97195312 3.60070312 -2.41015625 2.84765625 C-1 1 -1 1 0 0 Z " fill="#4A3BB4" transform="translate(26,78)"/>
<path d="M0 0 C0.66 0 1.32 0 2 0 C2.98120464 3.05263664 2.98120464 4.94736336 2 8 C1.01 7.67 0.02 7.34 -1 7 C-0.67 4.69 -0.34 2.38 0 0 Z " fill="#1501A6" transform="translate(125,53)"/>
<path d="M0 0 C0.625 1.875 0.625 1.875 1 4 C-1.46278801 6.46278801 -3.70676982 6.99771255 -7 8 C-6.02133662 6.85373678 -5.04205413 5.70800212 -4.0625 4.5625 C-3.51722656 3.92441406 -2.97195312 3.28632812 -2.41015625 2.62890625 C-1.63204305 1.73008851 -0.84063472 0.84063472 0 0 Z " fill="#4E40B0" transform="translate(18,87)"/>
<path d="M0 0 C-0.33 1.98 -0.66 3.96 -1 6 C-3.97 5.505 -3.97 5.505 -7 5 C-2.25 0 -2.25 0 0 0 Z " fill="#1602A4" transform="translate(48,60)"/>
<path d="M0 0 C1.32 0.66 2.64 1.32 4 2 C1.4345406 4.5654594 -0.47686668 4.54046087 -4 5 C-2.68 3.35 -1.36 1.7 0 0 Z " fill="#776BC3" transform="translate(63,40)"/>
<path d="M0 0 C0.33 0.66 0.66 1.32 1 2 C1.66 2.33 2.32 2.66 3 3 C1.03533587 4.06775224 -0.96855359 5.06553465 -3 6 C-3.66 5.67 -4.32 5.34 -5 5 C-3.35 3.35 -1.7 1.7 0 0 Z " fill="#8962E6" transform="translate(87,165)"/>
<path d="M0 0 C1.485 0.99 1.485 0.99 3 2 C3 2.66 3 3.32 3 4 C1.68 3.34 0.36 2.68 -1 2 C-0.67 1.34 -0.34 0.68 0 0 Z M4 -1 C4.66 0.32 5.32 1.64 6 3 C5.01 4.485 5.01 4.485 4 6 C4 4.35 4 2.7 4 1 C3.34 0.67 2.68 0.34 2 0 C2.66 -0.33 3.32 -0.66 4 -1 Z " fill="#1700A7" transform="translate(188,100)"/>
<path d="M0 0 C0.99 0 1.98 0 3 0 C2.625 2.4375 2.625 2.4375 2 5 C1.01 5.495 1.01 5.495 0 6 C-0.38218767 4.34385343 -0.71395102 2.67542976 -1 1 C-0.67 0.67 -0.34 0.34 0 0 Z " fill="#7440E9" transform="translate(110,187)"/>
<path d="M0 0 C0.33 0.66 0.66 1.32 1 2 C-0.24546405 5.73639216 -1.63404953 6.18756513 -5 8 C-4.45773019 4.20411134 -2.79872437 2.52788007 0 0 Z " fill="#A185E8" transform="translate(81,171)"/>
<path d="M0 0 C1 3 1 3 0.0625 5.1875 C-0.4634375 6.0846875 -0.4634375 6.0846875 -1 7 C-1.66 7 -2.32 7 -3 7 C-3 6.34 -3 5.68 -3 5 C-3.66 4.67 -4.32 4.34 -5 4 C-3.35 2.68 -1.7 1.36 0 0 Z " fill="#5E15EA" transform="translate(87,170)"/>
<path d="M0 0 C1.32 0.66 2.64 1.32 4 2 C3.67 2.99 3.34 3.98 3 5 C2.01 5.33 1.02 5.66 0 6 C-1.24546405 3.50907189 -0.7767578 2.58919267 0 0 Z " fill="#2B19A7" transform="translate(83,136)"/>
<path d="M0 0 C1.485 0.99 1.485 0.99 3 2 C1.25 5.875 1.25 5.875 -1 7 C-1.04254356 5.00045254 -1.04080783 2.99958364 -1 1 C-0.67 0.67 -0.34 0.34 0 0 Z " fill="#9B7DE8" transform="translate(122,25)"/>
<path d="M0 0 C1.485 0.99 1.485 0.99 3 2 C2.67 3.65 2.34 5.3 2 7 C1.01 7 0.02 7 -1 7 C-1 6.01 -1 5.02 -1 4 C-0.34 4 0.32 4 1 4 C0.67 2.68 0.34 1.36 0 0 Z " fill="#703BDD" transform="translate(113,16)"/>
</svg>
